<svg width="15" height="14" viewBox="0 0 15 14" fill="none" xmlns="http://www.w3.org/2000/svg">
    <path d="M12.3528 8.14942V8.70972C12.3528 9.7799 11.7533 10.71 10.868 11.1807L11.2322 12.6318H10.1116L9.83143 11.5112C9.73618 11.5112 9.64653 11.5112 9.55128 11.5112H5.06885C4.9736 11.5112 4.88395 11.5112 4.7887 11.5112L4.50855 12.6318H3.38794L3.75214 11.1807C2.86686 10.71 2.26733 9.7799 2.26733 8.70972V8.14942H1.70703V7.02881H11.7925V3.10669C11.7925 2.95809 11.7335 2.81557 11.6284 2.7105C11.5233 2.60542 11.3808 2.54639 11.2322 2.54639C10.952 2.54639 10.7391 2.73689 10.6719 2.98903C11.0249 3.29159 11.2322 3.73983 11.2322 4.2273H7.87037C7.87037 3.78149 8.04746 3.35395 8.36269 3.03871C8.67793 2.72348 9.10547 2.54639 9.55128 2.54639C9.58489 2.54639 9.61291 2.54639 9.64653 2.54639C9.87625 1.89644 10.4982 1.42578 11.2322 1.42578C11.678 1.42578 12.1055 1.60288 12.4208 1.91811C12.736 2.23334 12.9131 2.66089 12.9131 3.10669V8.14942H12.3528ZM11.2322 8.14942H3.38794V8.70972C3.38794 9.15553 3.56504 9.58307 3.88027 9.89831C4.1955 10.2135 4.62305 10.3906 5.06885 10.3906H9.55128C9.99708 10.3906 10.4246 10.2135 10.7399 9.89831C11.0551 9.58307 11.2322 9.15553 11.2322 8.70972V8.14942Z" fill="#737D8C"/>
    </svg>
    