<svg width="13" height="8" viewBox="0 0 13 8" fill="none" xmlns="http://www.w3.org/2000/svg">
    <path d="M10.9683 2.90698V1.22608C10.9683 0.928872 10.8502 0.643841 10.6401 0.433687C10.4299 0.223532 10.1449 0.105469 9.84766 0.105469H3.12403C2.82682 0.105469 2.54179 0.223532 2.33164 0.433687C2.12148 0.643841 2.00342 0.928872 2.00342 1.22608V2.90698C1.70622 2.90698 1.42118 3.02505 1.21103 3.2352C1.00088 3.44536 0.882813 3.73039 0.882812 4.02759V6.82911H1.62802L2.00342 7.94971H2.56372L2.93913 6.82911H10.0326L10.408 7.94971H10.9683L11.3437 6.82911H12.0889V4.02759C12.0889 3.73039 11.9708 3.44536 11.7607 3.2352C11.5505 3.02505 11.2655 2.90698 10.9683 2.90698ZM7.04615 1.22608H9.84766V2.90698H7.04615M3.12403 1.22608H5.92554V2.90698H3.12403M10.9683 5.7085H2.00342V4.02759H10.9683V5.7085Z" fill="#737D8C"/>
    </svg>
    