<svg width="16" height="17" viewBox="0 0 16 17" fill="none" xmlns="http://www.w3.org/2000/svg">
    <path d="M8.14332 9.58951H8.03378C6.57106 9.5444 5.47564 8.40387 5.47564 6.99915C5.47564 5.56865 6.64194 4.40234 8.07244 4.40234C9.50294 4.40234 10.6692 5.56865 10.6692 6.99915C10.6706 7.67218 10.4095 8.31922 9.94149 8.80288C9.47347 9.28654 8.83536 9.56872 8.16265 9.58951H8.14332ZM8.066 5.36245C7.16388 5.36245 6.43575 6.09703 6.43575 6.99271C6.4338 7.41462 6.59615 7.82072 6.88842 8.12501C7.18069 8.42931 7.57991 8.60789 8.00156 8.62296C8.05073 8.61616 8.1006 8.61616 8.14977 8.62296C8.56718 8.6007 8.96018 8.41926 9.24786 8.11599C9.53555 7.81273 9.69602 7.41071 9.69625 6.99271C9.69625 6.09703 8.96811 5.36245 8.066 5.36245ZM8.066 15.5306C6.33265 15.5306 4.67662 14.8862 3.39433 13.7135C3.33886 13.6624 3.29601 13.5992 3.26918 13.5287C3.24234 13.4583 3.23224 13.3825 3.23968 13.3075C3.32345 12.5407 3.80028 11.8255 4.59285 11.2971C6.51307 10.0212 9.62537 10.0212 11.5391 11.2971C12.3317 11.8319 12.8086 12.5407 12.8923 13.3075C12.9116 13.4622 12.8537 13.6104 12.7377 13.7135C11.4632 14.8833 9.79593 15.5318 8.066 15.5306ZM4.25134 13.1786C5.32052 14.0745 6.67113 14.565 8.066 14.564C9.46428 14.564 10.811 14.0743 11.8807 13.1786C11.7647 12.7856 11.4554 12.4054 10.9979 12.0961C9.41273 11.0393 6.72571 11.0393 5.12768 12.0961C4.67018 12.4054 4.36732 12.7856 4.25134 13.1786Z" fill="black"/>
    <path d="M8.06661 15.5297C4.2455 15.5297 1.13965 12.4238 1.13965 8.60274C1.13965 4.78164 4.2455 1.67578 8.06661 1.67578C11.8877 1.67578 14.9936 4.78164 14.9936 8.60274C14.9936 12.4238 11.8877 15.5297 8.06661 15.5297ZM8.06661 2.64233C4.78033 2.64233 2.1062 5.31646 2.1062 8.60274C2.1062 11.889 4.78033 14.5632 8.06661 14.5632C11.3529 14.5632 14.027 11.889 14.027 8.60274C14.027 5.31646 11.3529 2.64233 8.06661 2.64233Z" fill="black"/>
    </svg>
    